<?xml version="1.0" standalone="no"?>
<!DOCTYPE svg PUBLIC "-//W3C//DTD SVG 20010904//EN"
 "http://www.w3.org/TR/2001/REC-SVG-20010904/DTD/svg10.dtd">
<svg version="1.0" xmlns="http://www.w3.org/2000/svg"
 width="72.000000pt" height="72.000000pt" viewBox="0 0 72.000000 72.000000"
 preserveAspectRatio="xMidYMid meet">
<metadata>
Created by potrace 1.14, written by Peter Selinger 2001-2017
</metadata>
<g transform="translate(0.000000,72.000000) scale(0.100000,-0.100000)"
fill="#000000" stroke="none">
<path d="M30 590 c0 -47 2 -50 25 -50 21 0 25 -5 25 -30 l0 -30 80 0 c79 0 80
0 80 -25 0 -24 -3 -25 -55 -25 -30 0 -55 -4 -55 -10 0 -5 -11 -10 -25 -10
l-25 0 0 -130 0 -130 25 0 c20 0 25 -5 25 -25 0 -20 5 -25 25 -25 21 0 25 -5
25 -30 l0 -30 220 0 220 0 0 30 c0 27 3 30 30 30 l30 0 0 220 0 220 -30 0
c-25 0 -30 4 -30 25 0 20 -5 25 -25 25 -20 0 -25 5 -25 25 l0 25 -115 0 -115
0 0 -25 c0 -20 -5 -25 -25 -25 -24 0 -25 -3 -25 -55 0 -52 -1 -55 -25 -55 -24
0 -25 3 -25 55 0 54 0 55 -30 55 -25 0 -30 4 -30 25 0 24 -2 25 -75 25 l-75 0
0 -50z"/>
</g>
</svg>
